<?xml version="1.0" encoding="UTF-8" standalone="no"?>
<!DOCTYPE svg PUBLIC "-//W3C//DTD SVG 1.1//EN" "http://www.w3.org/Graphics/SVG/1.1/DTD/svg11.dtd">
<svg width="100%" height="100%" viewBox="0 0 2950 2955" version="1.1" xmlns="http://www.w3.org/2000/svg" xmlns:xlink="http://www.w3.org/1999/xlink" xml:space="preserve" xmlns:serif="http://www.serif.com/" style="fill-rule:evenodd;clip-rule:evenodd;stroke-linejoin:round;stroke-miterlimit:2;">
    <g transform="matrix(0.983065,0,0,0.98474,0,0)">
        <rect id="doggo" x="0" y="0" width="3000" height="3000" style="fill:none;"/>
        <g id="doggo1" serif:id="doggo">
            <g transform="matrix(1.27795,0,0,1.27795,-332.771,-320.896)">
                <path d="M439.59,1740.15C437.31,1014.52 857.457,445.942 1457.87,391.033C987.56,635.767 1131.53,1292.56 1161.61,1693.13C1163.61,1708.52 1164.64,1724.22 1164.64,1740.15C1164.64,1940.24 1002.2,2102.68 802.116,2102.68C602.032,2102.68 439.59,1940.24 439.59,1740.15ZM1204.92,2525.2L1204.93,2525.2C1002.89,2546.51 878.304,2474.6 793.41,2354.9C923.545,2397.93 1050.94,2422.74 1156.22,2300.77C1121.98,2028.75 1163.66,1710.33 1296.08,1323.8C1405.65,1443.54 1506.4,1504.6 1621.44,1529.59C1623.44,1747.69 1716.78,2086.59 1809.3,2330.68C1828.96,2310.2 1856.61,2297.45 1887.2,2297.45C1946.82,2297.45 1995.22,2345.85 1995.22,2405.46C1995.22,2465.08 1946.82,2513.47 1887.2,2513.47L1887.15,2513.47L1887.2,2513.58L1204.92,2525.2ZM1525.88,1465.36C1319.64,1376.67 1175.07,1171.59 1175.07,933.013C1175.07,613.359 1434.59,353.84 1754.25,353.84C2072.45,353.84 2331.07,611.011 2333.41,928.67C2347.42,1211.31 2397.23,1352.07 2458.04,1441.18C2476.33,1534.29 1955.69,1677.93 1525.88,1465.36ZM2205.03,1256.03C2179.7,1270.87 2029.97,1168.8 2028.66,1143.74L2010.3,1168.84C1995.44,1205.25 2174.99,1315.8 2189.45,1280.5L2205.03,1256.03Z"/>
            </g>
        </g>
    </g>
</svg>
