<svg width="29" height="23" viewBox="0 0 29 23" fill="none" xmlns="http://www.w3.org/2000/svg">
<path d="M28.541 1.91667C28.541 0.85812 27.6829 0 26.6243 0L2.14999 0C1.09144 0 0.233322 0.85812 0.233322 1.91667C0.233322 2.97521 1.09144 3.83333 2.14999 3.83333L26.6243 3.83333C27.6829 3.83333 28.541 2.97521 28.541 1.91667ZM28.541 11.5C28.541 10.4415 27.6829 9.58333 26.6243 9.58333L2.14999 9.58333C1.09144 9.58333 0.233322 10.4415 0.233322 11.5C0.233322 12.5585 1.09144 13.4167 2.14999 13.4167L26.6243 13.4167C27.6829 13.4167 28.541 12.5585 28.541 11.5ZM26.6243 23C27.6829 23 28.541 22.1419 28.541 21.0833C28.541 20.0248 27.6829 19.1667 26.6243 19.1667L2.14999 19.1667C1.09145 19.1667 0.233322 20.0248 0.233322 21.0833C0.233322 22.1419 1.09144 23 2.14999 23L26.6243 23Z" fill="#222222"/>
</svg>
